<?xml version="1.0" encoding="UTF-8"?>
<svg width="392px" height="18px" viewBox="0 0 392 18" version="1.1" xmlns="http://www.w3.org/2000/svg" xmlns:xlink="http://www.w3.org/1999/xlink">
    <title>94BDDD48-830D-4221-A4CB-388CAA9F99BD</title>
    <g id="Pages" stroke="none" stroke-width="1" fill="none" fill-rule="evenodd">
        <g id="Homepage" transform="translate(-764.000000, -25.000000)" fill="#000000" fill-rule="nonzero">
            <g id="Menu">
                <path d="M799.394469,25 C804.742485,25 808.472683,29.0520624 808.472683,33.9503724 L808.472683,34 C808.472683,38.8976654 804.692835,43 799.344819,43 C793.996804,43 790.26596,38.947293 790.26596,34.0496276 L790.26596,34 C790.26596,29.1016901 794.045809,25 799.394469,25 Z M773.229559,25 C776.264013,25 778.129435,25.8449585 779.920704,27.361501 L777.980485,29.6740189 C776.637355,28.5300057 775.318728,27.808794 773.104467,27.808794 C769.895915,27.808794 767.457906,30.6175881 767.457906,33.9497279 L767.457906,34 C767.457906,37.5802779 769.821118,40.2156975 773.377864,40.2156975 C775.019539,40.2156975 776.512263,39.6929963 777.58264,38.8976654 L777.58264,35.6409338 L773.130259,35.6409338 L773.130259,32.9803781 L780.542296,32.9803781 L780.542296,40.2898167 C778.825824,41.7560871 776.364602,43 773.279209,43 C767.831894,43 764.25,39.1213119 764.25,34.0496276 L764.25,34 C764.25,29.1261816 767.980199,25 773.229559,25 Z M1037.45531,25.2977657 L1037.45531,39.9166428 L1046.60896,39.9166428 L1046.60896,42.7015898 L1034.3957,42.7015898 L1034.3957,25.2977657 L1037.45531,25.2977657 Z M825.290496,25.2984102 C830.762959,25.2984102 834.543452,29.0520624 834.543452,33.9503724 L834.543452,34 C834.543452,38.8976654 830.763603,42.7015898 825.290496,42.7015898 L818.798596,42.7015898 L818.798596,25.2984102 L825.290496,25.2984102 Z M851.303232,25.2984102 C856.77505,25.2984102 860.556189,29.0520624 860.556189,33.9503724 L860.556189,34 C860.556189,38.8976654 856.775695,42.7015898 851.303232,42.7015898 L844.811332,42.7015898 L844.811332,25.2984102 L851.303232,25.2984102 Z M878.602355,25.1740189 L886.263932,42.7015898 L883.028944,42.7015898 L881.264112,38.4993555 L873.029948,38.4993555 L871.239968,42.7015898 L868.105569,42.7015898 L875.766501,25.1740189 L878.602355,25.1740189 Z M903.418978,25.2977657 C905.608737,25.2977657 907.324564,25.9442137 908.443946,27.0385993 C909.364083,27.9834575 909.886375,29.275709 909.886375,30.792896 L909.886375,30.8418791 C909.886375,33.7015898 908.169903,35.4166428 905.732539,36.1127184 L910.43317,42.7015898 L906.826774,42.7015898 L902.548491,36.6354197 L898.717702,36.6354197 L898.717702,42.7015898 L895.658101,42.7015898 L895.658101,25.2977657 L903.418978,25.2977657 Z M926.769958,25.2984102 C932.24242,25.2984102 936.023559,29.0520624 936.023559,33.9503724 L936.023559,34 C936.023559,38.8976654 932.243065,42.7015898 926.769958,42.7015898 L920.278702,42.7015898 L920.278702,25.2984102 L926.769958,25.2984102 Z M956.418751,25.2977657 L956.418751,39.9166428 L965.573052,39.9166428 L965.573052,42.7015898 L953.359795,42.7015898 L953.359795,25.2977657 L956.418751,25.2977657 Z M978.180931,25.2977657 L978.180931,42.7015898 L975.121974,42.7015898 L975.121974,25.2977657 L978.180931,25.2977657 Z M1001.83884,25.2977657 L1001.83884,28.1323403 L996.316081,28.1323403 L996.316081,42.7015898 L993.231977,42.7015898 L993.231977,28.1323403 L987.710509,28.1323403 L987.710509,25.2977657 L1001.83884,25.2977657 Z M1024.90159,25.2977657 L1024.90159,28.1323403 L1019.37948,28.1323403 L1019.37948,42.7015898 L1016.29537,42.7015898 L1016.29537,28.1323403 L1010.77326,28.1323403 L1010.77326,25.2977657 L1024.90159,25.2977657 Z M1068.99015,25.2977657 L1068.99015,28.0324406 L1059.14011,28.0324406 L1059.14011,32.5575766 L1067.87077,32.5575766 L1067.87077,35.2922515 L1059.14011,35.2922515 L1059.14011,39.9669149 L1069.11525,39.9669149 L1069.11525,42.7015898 L1056.08051,42.7015898 L1056.08051,25.2977657 L1068.99015,25.2977657 Z M1092.40433,25.2977657 L1092.40433,28.0827127 L1082.50463,28.0827127 L1082.50463,32.8321398 L1091.28494,32.8321398 L1091.28494,35.6157978 L1082.50463,35.6157978 L1082.50463,42.7015898 L1079.44503,42.7015898 L1079.44503,25.2977657 L1092.40433,25.2977657 Z M1109.54905,25.1740189 L1117.21063,42.7015898 L1113.97693,42.7015898 L1112.21081,38.4993555 L1103.97729,38.4993555 L1102.18667,42.7015898 L1099.05227,42.7015898 L1106.71384,25.1740189 L1109.54905,25.1740189 Z M1129.74242,25.2977657 L1129.74242,42.7015898 L1126.68282,42.7015898 L1126.68282,25.2977657 L1129.74242,25.2977657 Z M1148.73581,25.2977657 C1150.92492,25.2977657 1152.64139,25.9442137 1153.76078,27.0385993 C1154.68091,27.9834575 1155.20256,29.275709 1155.20256,30.792896 L1155.20256,30.8418791 C1155.20256,33.7015898 1153.48609,35.4166428 1151.04937,36.1127184 L1155.75,42.7015898 L1152.14296,42.7015898 L1147.86468,36.6354197 L1144.03453,36.6354197 L1144.03453,42.7015898 L1140.97493,42.7015898 L1140.97493,25.2977657 L1148.73581,25.2977657 Z M799.344175,27.8094386 C795.886728,27.8094386 793.473867,30.5692495 793.473867,33.9503724 L793.473867,34 C793.473867,37.3804784 795.936378,40.1899169 799.394469,40.1899169 C802.851271,40.1899169 805.264132,37.4307505 805.264132,34.0496276 L805.264132,34 C805.264132,30.6182326 802.801621,27.8094386 799.344175,27.8094386 Z M825.290496,28.0820682 L821.857552,28.0820682 L821.857552,39.9166428 L825.290496,39.9166428 L825.290496,39.9172873 C828.947187,39.9172873 831.334901,37.4558866 831.334901,34.0496276 L831.334901,34 C831.334901,30.5943856 828.947187,28.0820682 825.290496,28.0820682 Z M851.303877,28.0820682 L847.870934,28.0820682 L847.870934,39.9166428 L851.303877,39.9166428 L851.303877,39.9172873 C854.960568,39.9172873 857.348282,37.4558866 857.348282,34.0496276 L857.348282,34 C857.348282,30.5943856 854.960568,28.0820682 851.303877,28.0820682 Z M926.770602,28.0820682 L923.338304,28.0820682 L923.338304,39.9166428 L926.770602,39.9166428 L926.770602,39.9172873 C930.427293,39.9172873 932.815008,37.4558866 932.815008,34.0496276 L932.815008,34 C932.815008,30.5943856 930.427293,28.0820682 926.770602,28.0820682 Z M877.134778,28.8284159 L874.149974,35.7891722 L880.14473,35.7891722 L877.134778,28.8284159 Z M1108.08148,28.8284159 L1105.09667,35.7891722 L1111.09143,35.7891722 L1108.08148,28.8284159 Z M903.170083,28.0827127 L898.717702,28.0827127 L898.717702,33.9245918 L903.19523,33.9245918 L903.19523,33.9252363 C905.384344,33.9252363 906.777124,32.7825122 906.777124,31.0165425 L906.777124,30.9662704 C906.777124,29.1023346 905.433994,28.0827127 903.170083,28.0827127 Z M1148.48627,28.0827127 L1144.03453,28.0827127 L1144.03453,33.9245918 L1148.51142,33.9245918 L1148.51142,33.9252363 C1150.70117,33.9252363 1152.09331,32.7825122 1152.09331,31.0165425 L1152.09331,30.9662704 C1152.09331,29.1023346 1150.75082,28.0827127 1148.48627,28.0827127 Z" id="logo_goddard"></path>
            </g>
        </g>
    </g>
</svg>